<?xml version="1.0" standalone="no"?><svg xmlns="http://www.w3.org/2000/svg" viewBox="0 0 1440 320"><path fill="#2C3343" fill-opacity="1" d="M0,96L0,96L96,96L96,192L192,192L192,32L288,32L288,224L384,224L384,128L480,128L480,160L576,160L576,64L672,64L672,64L768,64L768,160L864,160L864,224L960,224L960,224L1056,224L1056,192L1152,192L1152,256L1248,256L1248,128L1344,128L1344,0L1440,0L1440,320L1344,320L1344,320L1248,320L1248,320L1152,320L1152,320L1056,320L1056,320L960,320L960,320L864,320L864,320L768,320L768,320L672,320L672,320L576,320L576,320L480,320L480,320L384,320L384,320L288,320L288,320L192,320L192,320L96,320L96,320L0,320L0,320Z" data-darkreader-inline-fill="" style="--darkreader-inline-fill:#232936;"></path></svg>