<?xml version="1.0" standalone="no"?><svg xmlns="http://www.w3.org/2000/svg" viewBox="0 0 1440 320"><path fill="#2C3343" fill-opacity="1" d="M0,128L0,128L110.8,128L110.8,288L221.5,288L221.5,224L332.3,224L332.3,320L443.1,320L443.1,128L553.8,128L553.8,192L664.6,192L664.6,192L775.4,192L775.4,96L886.2,96L886.2,256L996.9,256L996.9,192L1107.7,192L1107.7,32L1218.5,32L1218.5,32L1329.2,32L1329.2,192L1440,192L1440,0L1329.2,0L1329.2,0L1218.5,0L1218.5,0L1107.7,0L1107.7,0L996.9,0L996.9,0L886.2,0L886.2,0L775.4,0L775.4,0L664.6,0L664.6,0L553.8,0L553.8,0L443.1,0L443.1,0L332.3,0L332.3,0L221.5,0L221.5,0L110.8,0L110.8,0L0,0L0,0Z" data-darkreader-inline-fill="" style="--darkreader-inline-fill:#232936;"></path></svg>