<?xml version="1.0" standalone="no"?><svg xmlns="http://www.w3.org/2000/svg" viewBox="0 0 1440 320"><path fill="#262E3B" fill-opacity="1" d="M0,256L0,288L110.8,288L110.8,32L221.5,32L221.5,96L332.3,96L332.3,160L443.1,160L443.1,64L553.8,64L553.8,96L664.6,96L664.6,288L775.4,288L775.4,192L886.2,192L886.2,128L996.9,128L996.9,192L1107.7,192L1107.7,192L1218.5,192L1218.5,32L1329.2,32L1329.2,224L1440,224L1440,0L1329.2,0L1329.2,0L1218.5,0L1218.5,0L1107.7,0L1107.7,0L996.9,0L996.9,0L886.2,0L886.2,0L775.4,0L775.4,0L664.6,0L664.6,0L553.8,0L553.8,0L443.1,0L443.1,0L332.3,0L332.3,0L221.5,0L221.5,0L110.8,0L110.8,0L0,0L0,0Z" data-darkreader-inline-fill="" style="--darkreader-inline-fill:#1e252f;"></path></svg>