<?xml version="1.0" standalone="no"?><svg xmlns="http://www.w3.org/2000/svg" viewBox="0 0 1440 320"><path fill="#262E3B" fill-opacity="1" d="M0,160L0,256L110.8,256L110.8,128L221.5,128L221.5,32L332.3,32L332.3,192L443.1,192L443.1,32L553.8,32L553.8,64L664.6,64L664.6,192L775.4,192L775.4,160L886.2,160L886.2,0L996.9,0L996.9,256L1107.7,256L1107.7,192L1218.5,192L1218.5,32L1329.2,32L1329.2,160L1440,160L1440,320L1329.2,320L1329.2,320L1218.5,320L1218.5,320L1107.7,320L1107.7,320L996.9,320L996.9,320L886.2,320L886.2,320L775.4,320L775.4,320L664.6,320L664.6,320L553.8,320L553.8,320L443.1,320L443.1,320L332.3,320L332.3,320L221.5,320L221.5,320L110.8,320L110.8,320L0,320L0,320Z" data-darkreader-inline-fill="" style="--darkreader-inline-fill:#1e252f;"></path></svg>