<?xml version="1.0" standalone="no"?><svg xmlns="http://www.w3.org/2000/svg" viewBox="0 0 1440 320"><path fill="#242834" fill-opacity="1" d="M0,224L0,64L160,64L160,128L320,128L320,224L480,224L480,96L640,96L640,160L800,160L800,64L960,64L960,32L1120,32L1120,160L1280,160L1280,192L1440,192L1440,320L1280,320L1280,320L1120,320L1120,320L960,320L960,320L800,320L800,320L640,320L640,320L480,320L480,320L320,320L320,320L160,320L160,320L0,320L0,320Z" data-darkreader-inline-fill="" style="--darkreader-inline-fill:#1d202a;"></path></svg>