<?xml version="1.0" standalone="no"?><svg xmlns="http://www.w3.org/2000/svg" viewBox="0 0 1440 320"><path fill="#2C3343" fill-opacity="1" d="M0,320L0,128L160,128L160,192L320,192L320,96L480,96L480,0L640,0L640,192L800,192L800,288L960,288L960,192L1120,192L1120,96L1280,96L1280,160L1440,160L1440,320L1280,320L1280,320L1120,320L1120,320L960,320L960,320L800,320L800,320L640,320L640,320L480,320L480,320L320,320L320,320L160,320L160,320L0,320L0,320Z" data-darkreader-inline-fill="" style="--darkreader-inline-fill:#242936;"></path></svg>